<svg xmlns="http://www.w3.org/2000/svg" viewBox="0 10.399999618530273 425 35.19999694824219" data-asc="0.878" width="425" height="35.19999694824219"><defs/><g fill="#000000"><g transform="translate(0, 0)"><path d="M19.55 27.15L17.20 27.25Q7.40 27.75 4.10 30.10Q1 32.35 1 36.80Q1 39.75 2.10 41.48Q3.20 43.20 5.20 43.20Q7.05 43.20 7.05 40.35L7.05 12.20L3.40 12.20L3.40 11.40L16.40 11.40L16.40 12.20L12.25 12.20L12.25 38.65Q12.25 41.75 10.73 43.32Q9.20 44.90 6.48 44.90Q3.75 44.90 1.88 42.88Q0 40.85 0 37.10Q0 32.60 2.50 30.30Q5.10 28 8.70 27.30Q12.95 26.45 19.80 26.25Q25.20 26.10 26.58 25.77Q27.95 25.45 29.25 25.10Q30.55 24.75 31.15 24.30Q31.75 23.85 32.58 23.15Q33.40 22.45 33.80 21.60Q34.70 19.50 34.70 17.25Q34.70 15.00 34.20 13.80Q33.70 12.60 32.85 12.60Q31.20 12.60 31.20 15.25L31.20 43.10L35.35 43.10L35.35 43.90L22.35 43.90L22.35 43.10L26.00 43.10L26.00 16.15Q26.00 13.25 27.33 11.85Q28.65 10.45 30.85 10.45Q33.05 10.45 34.38 12.17Q35.70 13.90 35.70 16.87Q35.70 19.85 34.73 21.75Q33.75 23.65 32.52 24.62Q31.30 25.60 28.75 26.17Q26.20 26.75 24.55 26.87Q22.90 27.00 19.55 27.15ZM64.80 16.90Q64.55 15.05 62.05 13.25Q59.55 11.45 56.70 11.45Q53.85 11.45 52.05 12.25Q50.25 13.05 49.15 14.40Q48.05 15.75 47.35 17.85Q46.15 21.65 46.15 27.50Q46.15 36 47.25 38.70Q47.80 40.05 48.65 41.40Q50.30 43.95 54.20 43.95Q57.95 43.95 59.65 41.35Q61.45 38.65 61.85 35.10Q62.25 31.75 62.25 28.47Q62.25 25.20 62.20 24.00Q62.40 24.00 63.05 24.00Q63.70 24.00 65.35 23.25Q67 22.50 67.35 20.80Q68.35 24.15 68.35 27.50Q68.35 34.85 64.63 39.88Q60.90 44.90 54.20 44.90Q47.50 44.90 43.77 39.88Q40.05 34.85 40.05 27.25Q40.05 19.65 44.07 15.02Q48.10 10.40 55.20 10.40Q59.50 10.40 62.65 12.65Q65.80 14.90 65.80 17.65Q65.80 19.35 64.72 20.45Q63.65 21.55 62.25 21.55Q60.85 21.55 59.85 20.70Q58.85 19.85 58.85 18.45Q58.85 17.05 59.63 16.25Q60.40 15.45 61.50 15.45Q63.25 15.45 63.85 17.00Q64 17.40 64.35 17.40Q64.90 17.40 64.80 16.90ZM109.35 16.80Q109.70 15.75 109.70 14.67Q109.70 13.60 108.88 12.77Q108.05 11.95 107.40 11.95Q106.75 11.95 106.75 12.35Q106.75 12.75 107.15 12.90Q108.70 13.50 108.70 15.20Q108.70 16.30 107.90 17.07Q107.10 17.85 105.70 17.85Q104.30 17.85 103.45 16.85Q102.60 15.85 102.60 14.45Q102.60 13.05 103.70 11.97Q104.80 10.90 106.60 10.90Q108.40 10.90 109.52 12.10Q110.65 13.30 110.65 14.62Q110.65 15.95 110.30 16.90L101.75 41.85Q101.40 42.95 101.15 43.50Q100.40 44.90 98.80 44.90L98.65 44.90L91.70 22.40L85.20 41.85Q84.85 42.95 84.55 43.50Q83.85 44.90 82.25 44.90L82.10 44.90L72.00 12.20L68.45 12.20L68.45 11.40L81.45 11.40L81.45 12.20L77.75 12.20L85.25 38L85.55 38L91.20 20.80L88.55 12.20L85.00 12.20L85.00 11.40L98.00 11.40L98.00 12.20L94.30 12.20L101.80 38L102.10 38L109.35 16.80ZM161.15 16.80Q161.50 15.75 161.50 14.67Q161.50 13.60 160.68 12.77Q159.85 11.95 159.20 11.95Q158.55 11.95 158.55 12.35Q158.55 12.75 158.95 12.90Q160.50 13.50 160.50 15.20Q160.50 16.30 159.70 17.07Q158.90 17.85 157.50 17.85Q156.10 17.85 155.25 16.85Q154.40 15.85 154.40 14.45Q154.40 13.05 155.50 11.97Q156.60 10.90 158.40 10.90Q160.20 10.90 161.32 12.10Q162.45 13.30 162.45 14.62Q162.45 15.95 162.10 16.90L153.55 41.85Q153.20 42.95 152.95 43.50Q152.20 44.90 150.60 44.90L150.45 44.90L143.50 22.40L137 41.85Q136.65 42.95 136.35 43.50Q135.65 44.90 134.05 44.90L133.90 44.90L123.80 12.20L120.25 12.20L120.25 11.40L133.25 11.40L133.25 12.20L129.55 12.20L137.05 38L137.35 38L143 20.80L140.35 12.20L136.80 12.20L136.80 11.40L149.80 11.40L149.80 12.20L146.10 12.20L153.60 38L153.90 38L161.15 16.80ZM173.85 36.10Q173.85 39.65 175.98 41.57Q178.10 43.50 181.30 43.50Q184.50 43.50 186.58 41.98Q188.65 40.45 188.65 37.60Q188.65 36.95 188.35 36.30Q188.05 35.65 187.65 35.65Q187.25 35.65 187.25 36.15Q187.25 36.20 187.40 36.55Q187.55 36.90 187.55 37.70Q187.55 38.50 186.85 39.23Q186.15 39.95 184.90 39.95Q183.65 39.95 182.78 39.13Q181.90 38.30 181.90 36.85Q181.90 35.40 182.93 34.38Q183.95 33.35 185.60 33.35Q187.25 33.35 188.40 34.57Q189.55 35.80 189.55 37.65Q189.55 40.75 187.13 42.82Q184.70 44.90 179.45 44.90Q174.20 44.90 171.35 42.73Q168.50 40.55 168.50 36.82Q168.50 33.10 170.80 30.55Q173.10 28 177.40 27.05L177.25 26.60Q173.65 25.90 171.80 23.87Q169.95 21.85 169.95 19.10Q169.95 15.30 172.88 12.85Q175.80 10.40 180.25 10.40Q183.25 10.40 185.48 11.65Q187.70 12.90 187.70 15.70Q187.70 17.55 186.63 18.62Q185.55 19.70 184.15 19.70Q182.75 19.70 181.70 18.85Q180.65 18.00 180.65 16.60Q180.65 15.20 181.48 14.35Q182.30 13.50 183.55 13.50Q185.15 13.50 185.75 15.00Q185.85 15.35 185.95 15.47Q186.05 15.60 186.30 15.60Q186.75 15.60 186.75 15.15Q186.75 13.60 185.15 12.60Q183.55 11.60 181.20 11.60Q178.85 11.60 176.90 13.52Q174.95 15.45 174.95 18.80Q174.95 22.15 176.65 23.95Q178.35 25.75 181.10 25.75Q182.40 25.75 183.50 25.30L183.80 26.20Q173.85 29.10 173.85 36.10ZM220.55 27.15L218.20 27.25Q208.40 27.75 205.10 30.10Q202 32.35 202 36.80Q202 39.75 203.10 41.48Q204.20 43.20 206.20 43.20Q208.05 43.20 208.05 40.35L208.05 12.20L204.40 12.20L204.40 11.40L217.40 11.40L217.40 12.20L213.25 12.20L213.25 38.65Q213.25 41.75 211.73 43.32Q210.20 44.90 207.48 44.90Q204.75 44.90 202.88 42.88Q201 40.85 201 37.10Q201 32.60 203.50 30.30Q206.10 28 209.70 27.30Q213.95 26.45 220.80 26.25Q226.20 26.10 227.58 25.77Q228.95 25.45 230.25 25.10Q231.55 24.75 232.15 24.30Q232.75 23.85 233.58 23.15Q234.40 22.45 234.80 21.60Q235.70 19.50 235.70 17.25Q235.70 15.00 235.20 13.80Q234.70 12.60 233.85 12.60Q232.20 12.60 232.20 15.25L232.20 43.10L236.35 43.10L236.35 43.90L223.35 43.90L223.35 43.10L227 43.10L227 16.15Q227 13.25 228.33 11.85Q229.65 10.45 231.85 10.45Q234.05 10.45 235.38 12.17Q236.70 13.90 236.70 16.87Q236.70 19.85 235.73 21.75Q234.75 23.65 233.53 24.62Q232.30 25.60 229.75 26.17Q227.20 26.75 225.55 26.87Q223.90 27.00 220.55 27.15ZM248.75 36.10Q248.75 39.65 250.88 41.57Q253.00 43.50 256.20 43.50Q259.40 43.50 261.48 41.98Q263.55 40.45 263.55 37.60Q263.55 36.95 263.25 36.30Q262.95 35.65 262.55 35.65Q262.15 35.65 262.15 36.15Q262.15 36.20 262.30 36.55Q262.45 36.90 262.45 37.70Q262.45 38.50 261.75 39.23Q261.05 39.95 259.80 39.95Q258.55 39.95 257.68 39.13Q256.80 38.30 256.80 36.85Q256.80 35.40 257.83 34.38Q258.85 33.35 260.50 33.35Q262.15 33.35 263.30 34.57Q264.45 35.80 264.45 37.65Q264.45 40.75 262.03 42.82Q259.60 44.90 254.35 44.90Q249.10 44.90 246.25 42.73Q243.40 40.55 243.40 36.82Q243.40 33.10 245.70 30.55Q248.00 28 252.30 27.05L252.15 26.60Q248.55 25.90 246.70 23.87Q244.85 21.85 244.85 19.10Q244.85 15.30 247.78 12.85Q250.70 10.40 255.15 10.40Q258.15 10.40 260.38 11.65Q262.60 12.90 262.60 15.70Q262.60 17.55 261.53 18.62Q260.45 19.70 259.05 19.70Q257.65 19.70 256.60 18.85Q255.55 18.00 255.55 16.60Q255.55 15.20 256.38 14.35Q257.20 13.50 258.45 13.50Q260.05 13.50 260.65 15.00Q260.75 15.35 260.85 15.47Q260.95 15.60 261.20 15.60Q261.65 15.60 261.65 15.15Q261.65 13.60 260.05 12.60Q258.45 11.60 256.10 11.60Q253.75 11.60 251.80 13.52Q249.85 15.45 249.85 18.80Q249.85 22.15 251.55 23.95Q253.25 25.75 256 25.75Q257.30 25.75 258.40 25.30L258.70 26.20Q248.75 29.10 248.75 36.10ZM268.30 43.90L268.30 43.10L271.95 43.10L271.95 12.20L268.30 12.20L268.30 11.40L281.80 11.40L281.80 12.20L277.15 12.20L277.15 43.20Q279.05 43.35 282.08 44.02Q285.10 44.70 286.45 44.70Q289.15 44.70 290.60 43.45Q292.05 42.20 292.05 40.45Q292.05 38.70 291.13 37.90Q290.20 37.10 289.20 37.10Q288.75 37.10 288.75 37.52Q288.75 37.95 289.10 38Q291.00 38.50 291.00 40.30Q291.00 41.35 290.20 42.15Q289.40 42.95 287.98 42.95Q286.55 42.95 285.70 41.95Q284.85 40.95 284.85 39.55Q284.85 38.15 285.95 37.07Q287.05 36 288.75 36Q290.45 36 291.70 37.22Q292.95 38.45 292.95 40.55Q292.95 42.65 291.25 44.13Q289.55 45.60 286.65 45.60Q284.90 45.60 281.03 44.75Q277.15 43.90 273.45 43.90L268.30 43.90ZM299.80 21.85Q301.20 22.85 302.65 22.85Q304.10 22.85 305.00 22.45L305.00 28.95L307.90 28.95Q312.15 28.95 313.93 26.80Q315.70 24.65 315.70 20.15Q315.70 11.40 308.50 11.40Q303.95 11.40 301.55 13.30Q300.80 13.85 300.38 14.65Q299.95 15.45 299.95 15.92Q299.95 16.40 300.35 16.40Q300.75 16.40 300.90 16.00Q301.50 14.45 303.25 14.45Q304.35 14.45 305.13 15.25Q305.90 16.05 305.90 17.45Q305.90 18.85 304.90 19.70Q303.90 20.55 302.50 20.55Q301.10 20.55 300.03 19.45Q298.95 18.35 298.95 16.65Q298.95 13.95 301.68 12.17Q304.40 10.40 308.70 10.40Q314.50 10.40 317.90 12.75Q321.30 15.10 321.30 20.15Q321.30 25.20 318.35 27.47Q315.40 29.75 309.50 29.75L305.00 29.75L305.00 43.10L309.15 43.10L309.15 43.90L296.15 43.90L296.15 43.10L299.80 43.10L299.80 21.85ZM351.20 43.10L355.35 43.10L355.35 43.90L342.35 43.90L342.35 43.10L346.00 43.10L346.00 29.85L337.05 12.20L333.40 12.20L333.40 11.40L346.80 11.40L346.80 12.20L342.65 12.20L351.20 29.35L351.20 43.10M356.70 11.95Q356.70 11.95 357.03 11.95Q357.35 11.95 358.18 12.77Q359.00 13.60 359.00 14.72Q359.00 15.85 358.70 16.90Q358.60 17.25 358.38 17.67Q358.15 18.10 358.03 18.30Q357.90 18.50 357.65 18.85Q357.40 19.20 357.35 19.30L349.90 29.65L350.40 30.55L358.35 19.45Q359.95 17.25 359.95 15.27Q359.95 13.30 358.83 12.10Q357.70 10.90 355.90 10.90Q354.10 10.90 353.00 11.97Q351.90 13.05 351.90 14.45Q351.90 15.85 352.75 16.85Q353.60 17.85 355.00 17.85Q356.40 17.85 357.20 17.07Q358.00 16.30 358.00 15.20Q358.00 13.50 356.45 12.90Q356.05 12.75 356.05 12.35Q356.05 11.95 356.70 11.95ZM389.30 16.90Q389.05 15.05 386.55 13.25Q384.05 11.45 381.20 11.45Q378.35 11.45 376.55 12.25Q374.75 13.05 373.65 14.40Q372.55 15.75 371.85 17.85Q370.65 21.65 370.65 27.50Q370.65 36 371.75 38.70Q372.30 40.05 373.15 41.40Q374.80 43.95 378.70 43.95Q382.45 43.95 384.15 41.35Q385.95 38.65 386.35 35.10Q386.75 31.75 386.75 28.47Q386.75 25.20 386.70 24.00Q386.90 24.00 387.55 24.00Q388.20 24.00 389.85 23.25Q391.50 22.50 391.85 20.80Q392.85 24.15 392.85 27.50Q392.85 34.85 389.13 39.88Q385.40 44.90 378.70 44.90Q372.00 44.90 368.28 39.88Q364.55 34.85 364.55 27.25Q364.55 19.65 368.58 15.02Q372.60 10.40 379.70 10.40Q384.00 10.40 387.15 12.65Q390.30 14.90 390.30 17.65Q390.30 19.35 389.23 20.45Q388.15 21.55 386.75 21.55Q385.35 21.55 384.35 20.70Q383.35 19.85 383.35 18.45Q383.35 17.05 384.13 16.25Q384.90 15.45 386.00 15.45Q387.75 15.45 388.35 17.00Q388.50 17.40 388.85 17.40Q389.40 17.40 389.30 16.90ZM414.70 43.70Q414.70 43.70 416.30 43.70Q417.90 43.70 420.13 40.77Q422.35 37.85 423.20 33.52Q424.05 29.20 424.05 23.75Q424.05 18.30 422.55 15.05Q421.05 11.80 418.05 11.80Q416.40 11.80 415.48 12.70Q414.55 13.60 414.55 14.30Q414.55 15.00 414.95 15.00Q415.35 15.00 415.50 14.60Q416.10 13.05 417.80 13.05Q418.90 13.05 419.68 13.85Q420.45 14.65 420.45 16.05Q420.45 17.45 419.45 18.30Q418.45 19.15 417.05 19.15Q415.65 19.15 414.58 18.05Q413.50 16.95 413.50 15.22Q413.50 13.50 414.75 12.20Q416.00 10.90 417.90 10.90Q425.00 10.90 425.00 23.55Q425.00 32.55 423.05 37.35Q421.10 42.30 417.85 43.90Q415.95 44.90 412.98 44.90Q410.00 44.90 407.58 43.73Q405.15 42.55 403.75 40.25Q401.25 36.05 401.25 28.50L401.25 12.20L397.60 12.20L397.60 11.40L410.60 11.40L410.60 12.20L406.45 12.20L406.45 28.50Q406.45 35.55 407.15 38Q408.00 41.05 409.45 42.15Q411.50 43.70 414.70 43.70Z"/></g></g></svg>